<?xml version="1.0" standalone="no"?>
<!DOCTYPE svg PUBLIC "-//W3C//DTD SVG 20010904//EN"
 "http://www.w3.org/TR/2001/REC-SVG-20010904/DTD/svg10.dtd">
<svg version="1.0" xmlns="http://www.w3.org/2000/svg"
 width="700.000000pt" height="700.000000pt" viewBox="0 0 700.000000 700.000000"
 preserveAspectRatio="xMidYMid meet">
<metadata>
Created by potrace 1.11, written by Peter Selinger 2001-2013
</metadata>
<g transform="translate(0.000000,700.000000) scale(0.100000,-0.100000)"
fill="#000000" stroke="none">
<path d="M3245 6994 c-341 -33 -608 -88 -873 -179 -1197 -410 -2082 -1436
-2311 -2680 -39 -210 -53 -380 -53 -625 -1 -246 9 -371 43 -580 246 -1498
1443 -2673 2944 -2889 928 -134 1869 107 2610 669 721 546 1199 1336 1344
2220 64 388 60 824 -10 1205 -212 1150 -989 2124 -2063 2585 -296 127 -582
205 -942 256 -104 14 -594 27 -689 18z m704 -901 l441 -448 -445 -445 -445
-445 -447 447 -448 448 445 445 c245 245 448 445 452 445 3 0 205 -201 447
-447z m-1719 -454 c0 -19 166 -291 318 -521 236 -355 482 -676 740 -965 57
-64 81 -84 108 -89 19 -3 34 -10 34 -15 0 -5 29 -9 65 -9 37 0 65 4 65 10 0 6
8 10 18 10 52 0 494 542 764 936 159 233 398 618 398 642 0 9 103 12 440 12
l440 0 0 -440 c0 -368 -2 -440 -14 -440 -26 0 -436 -264 -687 -442 -259 -184
-634 -486 -796 -642 -76 -72 -83 -82 -83 -117 0 -22 -4 -39 -10 -39 -5 0 -10
-13 -10 -30 0 -16 5 -30 10 -30 6 0 10 -17 10 -38 0 -43 14 -59 192 -210 278
-236 560 -448 863 -647 245 -161 496 -315 514 -315 8 0 10 -121 9 -438 l-3
-437 -437 -3 c-397 -2 -438 -1 -438 14 0 39 -356 595 -552 860 -187 254 -400
516 -522 642 -46 47 -67 62 -88 62 -15 0 -28 5 -28 10 0 6 -22 10 -50 10 -27
0 -50 -4 -50 -10 0 -5 -13 -10 -28 -10 -22 0 -43 -15 -93 -67 -295 -308 -802
-992 -1039 -1400 l-65 -112 -431 0 c-385 -1 -433 1 -438 15 -12 30 -7 864 5
864 37 0 630 383 889 575 244 180 594 468 673 554 36 39 38 45 40 113 1 49 -2
73 -10 75 -7 3 -13 15 -13 27 0 65 -558 518 -1015 823 -199 133 -520 332 -557
346 -17 6 -18 35 -18 419 0 227 3 423 6 436 l6 22 434 0 c304 0 434 -3 434
-11z m-428 -1686 c241 -241 438 -442 438 -448 0 -5 -199 -209 -442 -452 l-443
-443 -442 442 c-244 244 -443 447 -443 453 0 13 872 885 885 885 5 0 207 -197
447 -437z m4266 -6 l442 -442 -448 -448 -447 -447 -445 445 -445 445 445 445
c245 245 447 445 450 445 3 0 204 -199 448 -443z m-2120 -2120 l442 -442 -448
-448 -447 -447 -445 445 -444 446 444 444 c245 245 447 445 450 445 3 0 204
-199 448 -443z"/>
</g>
</svg>
