<?xml version="1.0" standalone="no"?>
<!DOCTYPE svg PUBLIC "-//W3C//DTD SVG 20010904//EN"
 "http://www.w3.org/TR/2001/REC-SVG-20010904/DTD/svg10.dtd">
<svg version="1.0" xmlns="http://www.w3.org/2000/svg"
 width="700.000000pt" height="700.000000pt" viewBox="0 0 700.000000 700.000000"
 preserveAspectRatio="xMidYMid meet">
<metadata>
Created by potrace 1.11, written by Peter Selinger 2001-2013
</metadata>
<g transform="translate(0.000000,700.000000) scale(0.100000,-0.100000)"
fill="#000000" stroke="none">
<path d="M330 6989 c-152 -30 -290 -172 -320 -328 -14 -74 -14 -6248 0 -6322
30 -161 168 -299 329 -329 74 -14 6248 -14 6322 0 161 30 299 168 329 329 14
74 14 6248 0 6322 -30 161 -168 299 -329 329 -67 13 -6265 12 -6331 -1z m3693
-1581 c-274 -274 -502 -498 -508 -498 -5 0 -234 224 -507 497 l-498 498 502
502 503 503 502 -502 503 -503 -497 -497z m-1845 325 c205 -343 512 -786 771
-1113 185 -234 533 -635 550 -635 9 0 204 214 327 360 356 420 728 939 1008
1408 l89 147 488 0 489 0 -2 -492 -3 -492 -120 -75 c-602 -374 -1130 -771
-1639 -1230 l-139 -126 84 -78 c426 -399 1100 -900 1672 -1241 l147 -89 0
-488 0 -489 -489 0 -488 0 -101 168 c-212 354 -518 793 -787 1132 -183 230
-499 597 -516 599 -15 2 -383 -419 -575 -659 -275 -344 -648 -876 -809 -1153
l-50 -86 -492 -1 -493 0 0 489 0 488 168 101 c342 205 785 512 1112 771 234
185 635 533 635 550 0 9 -214 204 -360 327 -420 356 -939 728 -1407 1008
l-148 89 0 488 0 489 489 0 488 0 101 -167z m4722 -2248 c0 -5 -224 -234 -497
-507 l-498 -498 -502 502 -503 503 502 502 503 503 497 -497 c274 -274 498
-502 498 -508z m-5305 495 l500 -500 -155 -156 c-85 -85 -312 -309 -503 -497
l-348 -341 -500 500 -499 499 497 497 c274 274 500 498 503 498 3 0 230 -225
505 -500z m2428 -3382 c-274 -274 -502 -498 -508 -498 -5 0 -234 224 -507 497
l-498 498 502 502 503 503 502 -502 503 -503 -497 -497z"/>
<path d="M2080 5311 c0 -11 4 -22 9 -25 4 -3 6 6 3 19 -5 30 -12 33 -12 6z"/>
<path d="M4912 5310 c0 -14 2 -19 5 -12 2 6 2 18 0 25 -3 6 -5 1 -5 -13z"/>
<path d="M5285 4910 c-4 -7 3 -8 22 -4 38 9 42 14 10 14 -14 0 -29 -5 -32 -10z"/>
<path d="M1685 2090 l-30 -8 27 -1 c15 0 30 4 33 9 3 6 5 9 3 9 -2 -1 -16 -5
-33 -9z"/>
<path d="M5298 2083 c6 -2 18 -2 25 0 6 3 1 5 -13 5 -14 0 -19 -2 -12 -5z"/>
<path d="M4909 1688 c4 -28 6 -29 9 -9 2 13 0 27 -5 32 -6 6 -7 -3 -4 -23z"/>
</g>
</svg>
